<?xml version="1.0" encoding="utf-8"?>
<svg
	width="100%"
	height="100%"
	xmlns="http://www.w3.org/2000/svg"
	xmlns:xlink="http://www.w3.org/1999/xlink"
>
	<defs>
		<symbol viewBox="0 0 17 20" fill="currentColor" id="icon-minus-circle"><path d="M13.571 10.714v-1.429c0-0.391-0.324-0.714-0.714-0.714h-8.571c-0.391 0-0.714 0.324-0.714 0.714v1.429c0 0.391 0.324 0.714 0.714 0.714h8.571c0.391 0 0.714-0.324 0.714-0.714zM17.143 10c0 4.732-3.839 8.571-8.571 8.571s-8.571-3.839-8.571-8.571 3.839-8.571 8.571-8.571 8.571 3.839 8.571 8.571z"/></symbol>
		<symbol viewBox="0 0 17 20" fill="currentColor" id="icon-plus-circle"><path d="M13.571 10.714v-1.429c0-0.391-0.324-0.714-0.714-0.714h-2.857v-2.857c0-0.391-0.324-0.714-0.714-0.714h-1.429c-0.391 0-0.714 0.324-0.714 0.714v2.857h-2.857c-0.391 0-0.714 0.324-0.714 0.714v1.429c0 0.391 0.324 0.714 0.714 0.714h2.857v2.857c0 0.391 0.324 0.714 0.714 0.714h1.429c0.391 0 0.714-0.324 0.714-0.714v-2.857h2.857c0.391 0 0.714-0.324 0.714-0.714zM17.143 10c0 4.732-3.839 8.571-8.571 8.571s-8.571-3.839-8.571-8.571 3.839-8.571 8.571-8.571 8.571 3.839 8.571 8.571z"/></symbol>
		<symbol viewBox="0 0 19 20" fill="currentColor" id="icon-search"><path d="M12.857 9.286c0-2.757-2.243-5-5-5s-5 2.243-5 5 2.243 5 5 5 5-2.243 5-5zM18.571 18.571c0 0.781-0.647 1.429-1.429 1.429-0.379 0-0.748-0.156-1.004-0.424l-3.828-3.817c-1.306 0.904-2.868 1.384-4.453 1.384-4.342 0-7.857-3.516-7.857-7.857s3.516-7.857 7.857-7.857 7.857 3.516 7.857 7.857c0 1.585-0.48 3.147-1.384 4.453l3.828 3.828c0.257 0.257 0.413 0.625 0.413 1.004z"/></symbol>
		<symbol viewBox="0 0 20 20" fill="currentColor" id="icon-accessibility"><path d="M8.125 1.875c0-1.036 0.839-1.875 1.875-1.875s1.875 0.839 1.875 1.875c0 1.036-0.839 1.875-1.875 1.875s-1.875-0.839-1.875-1.875z"/><path d="M12.5 6.25l6.437-2.777-0.464-1.161-7.848 2.687h-1.25l-7.848-2.687-0.464 1.161 6.437 2.777v5l-2.564 8.292 1.169 0.443 3.627-8.111h0.536l3.627 8.111 1.169-0.443-2.564-8.292z"/></symbol>
		<symbol viewBox="0 0 20 20" fill="currentColor" id="icon-blocked"><path d="M17.071 2.929c-1.889-1.889-4.4-2.929-7.071-2.929s-5.182 1.040-7.071 2.929c-1.889 1.889-2.929 4.4-2.929 7.071s1.040 5.182 2.929 7.071c1.889 1.889 4.4 2.929 7.071 2.929s5.182-1.040 7.071-2.929c1.889-1.889 2.929-4.4 2.929-7.071s-1.040-5.182-2.929-7.071zM17.5 10c0 1.617-0.515 3.117-1.389 4.343l-10.454-10.454c1.226-0.874 2.726-1.389 4.343-1.389 4.136 0 7.5 3.364 7.5 7.5zM2.5 10c0-1.617 0.515-3.117 1.389-4.343l10.454 10.454c-1.226 0.874-2.726 1.389-4.343 1.389-4.136 0-7.5-3.364-7.5-7.5z"/></symbol>
		<symbol viewBox="0 0 20 20" fill="currentColor" id="icon-cocktail-glass"><path d="M17.366 3.511c0.148-0.188 0.175-0.444 0.071-0.659s-0.323-0.352-0.562-0.352h-13.75c-0.239 0-0.458 0.137-0.562 0.352s-0.077 0.471 0.071 0.659l6.116 7.785v7.454h-1.875c-0.345 0-0.625 0.28-0.625 0.625s0.28 0.625 0.625 0.625h6.25c0.345 0 0.625-0.28 0.625-0.625s-0.28-0.625-0.625-0.625h-1.875v-7.454l6.116-7.785zM15.589 3.75l-1.964 2.5h-7.25l-1.964-2.5h11.178z"/></symbol>
		<symbol viewBox="0 0 20 20" fill="currentColor" id="icon-contrast"><path d="M10 0c-5.523 0-10 4.477-10 10s4.477 10 10 10 10-4.477 10-10-4.477-10-10-10zM2.5 10c0-4.142 3.358-7.5 7.5-7.5v15c-4.142 0-7.5-3.358-7.5-7.5z"/></symbol>
		<symbol viewBox="0 0 20 20" fill="currentColor" id="icon-danger"><path d="M11.25 14.25c0 0.69-0.56 1.25-1.25 1.25s-1.25-0.56-1.25-1.25c0-0.69 0.56-1.25 1.25-1.25s1.25 0.56 1.25 1.25z"/><path d="M10 11.75c-0.69 0-1.25-0.56-1.25-1.25v-3.75c0-0.69 0.56-1.25 1.25-1.25s1.25 0.56 1.25 1.25v3.75c0 0.69-0.56 1.25-1.25 1.25z"/><path d="M19.767 9.437c0.144 0.144 0.233 0.343 0.233 0.562s-0.089 0.418-0.233 0.562l-9.206 9.206c-0.144 0.144-0.343 0.233-0.562 0.233s-0.418-0.089-0.562-0.233l-9.205-9.205c-0.144-0.144-0.233-0.343-0.233-0.562s0.089-0.418 0.233-0.562l9.206-9.206c0.144-0.144 0.343-0.233 0.562-0.233s0.418 0.089 0.562 0.233v0zM18.081 9.999l-8.081-8.081-8.082 8.082 8.081 8.081z"/></symbol>
		<symbol viewBox="0 0 20 20" fill="currentColor" id="icon-discord"><path d="M16.852 0c1.172 0 2.117 0.948 2.172 2.063v17.938l-2.231-1.894-1.225-1.115-1.337-1.165 0.558 1.838h-11.698c-1.168 0-2.117-0.888-2.117-2.063v-13.533c0-1.115 0.95-2.064 2.121-2.064l13.756-0.003zM11.753 4.736h-0.025l-0.168 0.167c1.727 0.5 2.563 1.281 2.563 1.281-1.113-0.557-2.117-0.835-3.12-0.947-0.725-0.112-1.45-0.053-2.063 0h-0.167c-0.392 0-1.225 0.167-2.342 0.612-0.389 0.169-0.612 0.28-0.612 0.28s0.835-0.835 2.675-1.281l-0.112-0.112s-1.393-0.053-2.897 1.058c0 0-1.504 2.62-1.504 5.85 0 0 0.833 1.45 3.119 1.505 0 0 0.333-0.444 0.671-0.835-1.283-0.39-1.783-1.17-1.783-1.17s0.112 0.055 0.279 0.167h0.050c0.025 0 0.037 0.012 0.050 0.025v0.005c0.013 0.013 0.025 0.025 0.050 0.025 0.275 0.113 0.55 0.225 0.775 0.333 0.388 0.168 0.887 0.336 1.5 0.447 0.775 0.112 1.663 0.167 2.675 0 0.5-0.112 1-0.223 1.5-0.446 0.325-0.167 0.725-0.333 1.164-0.614 0 0-0.5 0.78-1.838 1.17 0.275 0.388 0.662 0.833 0.662 0.833 2.287-0.050 3.175-1.5 3.225-1.438 0-3.225-1.512-5.85-1.512-5.85-1.362-1.012-2.637-1.050-2.862-1.050l0.047-0.017zM11.893 8.413c0.586 0 1.058 0.5 1.058 1.112 0 0.617-0.475 1.117-1.058 1.117s-1.058-0.5-1.058-1.112c0.002-0.617 0.477-1.115 1.058-1.115zM8.107 8.413c0.583 0 1.055 0.5 1.055 1.112 0 0.617-0.475 1.117-1.058 1.117s-1.058-0.5-1.058-1.112c0-0.617 0.475-1.115 1.058-1.115z"/></symbol>
		<symbol viewBox="0 0 20 20" fill="currentColor" id="icon-download"><path d="M17.5 10h-3.125l-4.375 4.375-4.375-4.375h-3.125l-2.5 5v1.25h20v-1.25l-2.5-5zM0 17.5h20v1.25h-20v-1.25zM11.25 6.25v-5h-2.5v5h-4.375l5.625 5.625 5.625-5.625h-4.375z"/></symbol>
		<symbol viewBox="0 0 20 20" fill="currentColor" id="icon-earth"><path d="M10 0c-5.523 0-10 4.477-10 10s4.477 10 10 10 10-4.477 10-10-4.477-10-10-10zM10 18.75c-1.23 0-2.4-0.254-3.462-0.712l4.554-5.123c0.102-0.114 0.158-0.262 0.158-0.415v-1.875c0-0.345-0.28-0.625-0.625-0.625-2.207 0-4.535-2.294-4.558-2.317-0.117-0.117-0.276-0.183-0.442-0.183h-2.5c-0.345 0-0.625 0.28-0.625 0.625v3.75c0 0.237 0.134 0.453 0.346 0.559l2.154 1.077v3.67c-2.267-1.581-3.75-4.208-3.75-7.181 0-1.342 0.303-2.613 0.843-3.75h2.282c0.166 0 0.325-0.066 0.442-0.183l2.5-2.5c0.117-0.117 0.183-0.276 0.183-0.442v-1.512c0.792-0.236 1.631-0.363 2.5-0.363 1.375 0 2.676 0.318 3.834 0.883-0.081 0.068-0.16 0.14-0.235 0.216-0.708 0.708-1.098 1.65-1.098 2.652s0.39 1.943 1.098 2.652c0.712 0.712 1.664 1.099 2.649 1.099 0.062 0 0.124-0.002 0.186-0.005 0.27 1.012 0.757 3.646-0.164 7.272-0.009 0.034-0.014 0.068-0.016 0.102-1.588 1.623-3.803 2.63-6.253 2.63z"/></symbol>
		<symbol viewBox="0 0 20 20" fill="currentColor" id="icon-embed"><path d="M11.25 14.375l1.875 1.875 6.25-6.25-6.25-6.25-1.875 1.875 4.375 4.375z"/><path d="M8.75 5.625l-1.875-1.875-6.25 6.25 6.25 6.25 1.875-1.875-4.375-4.375z"/></symbol>
		<symbol viewBox="0 0 20 20" fill="currentColor" id="icon-enlarge"><path d="M20 0h-8.125l3.125 3.125-3.75 3.75 1.875 1.875 3.75-3.75 3.125 3.125z"/><path d="M20 20v-8.125l-3.125 3.125-3.75-3.75-1.875 1.875 3.75 3.75-3.125 3.125z"/><path d="M0 20h8.125l-3.125-3.125 3.75-3.75-1.875-1.875-3.75 3.75-3.125-3.125z"/><path d="M0 0v8.125l3.125-3.125 3.75 3.75 1.875-1.875-3.75-3.75 3.125-3.125z"/></symbol>
		<symbol viewBox="0 0 20 20" fill="currentColor" id="icon-facebook"><path d="M11.875 3.75h3.125v-3.75h-3.125c-2.412 0-4.375 1.963-4.375 4.375v1.875h-2.5v3.75h2.5v10h3.75v-10h3.125l0.625-3.75h-3.75v-1.875c0-0.339 0.286-0.625 0.625-0.625z"/></symbol>
		<symbol viewBox="0 0 20 20" fill="currentColor" id="icon-fire"><path d="M6.27 20c-1.333-2.774-0.623-4.363 0.401-5.86 1.122-1.64 1.411-3.263 1.411-3.263s0.882 1.146 0.529 2.94c1.558-1.734 1.852-4.498 1.617-5.556 3.522 2.461 5.027 7.79 2.998 11.74 10.789-6.104 2.684-15.238 1.273-16.267 0.47 1.029 0.56 2.771-0.391 3.616-1.608-6.099-5.585-7.349-5.585-7.349 0.47 3.145-1.705 6.585-3.803 9.155-0.074-1.254-0.152-2.12-0.812-3.32-0.148 2.278-1.889 4.136-2.361 6.419-0.639 3.092 0.478 5.355 4.722 7.747z"/></symbol>
		<symbol viewBox="0 0 20 20" fill="currentColor" id="icon-hashtag"><path d="M11.060 11.429l0.714-2.857h-2.835l-0.714 2.857h2.835zM19.632 5.804l-0.625 2.5c-0.045 0.156-0.179 0.268-0.346 0.268h-3.65l-0.714 2.857h3.471c0.112 0 0.212 0.056 0.279 0.134 0.067 0.089 0.1 0.201 0.067 0.313l-0.625 2.5c-0.033 0.156-0.179 0.268-0.346 0.268h-3.65l-0.904 3.661c-0.045 0.156-0.19 0.268-0.346 0.268h-2.5c-0.112 0-0.223-0.056-0.29-0.134-0.067-0.089-0.089-0.201-0.067-0.313l0.871-3.482h-2.835l-0.904 3.661c-0.045 0.156-0.19 0.268-0.346 0.268h-2.511c-0.1 0-0.212-0.056-0.279-0.134-0.067-0.089-0.089-0.201-0.067-0.313l0.871-3.482h-3.471c-0.112 0-0.212-0.056-0.279-0.134-0.067-0.089-0.089-0.201-0.067-0.313l0.625-2.5c0.045-0.156 0.179-0.268 0.346-0.268h3.65l0.714-2.857h-3.471c-0.112 0-0.212-0.056-0.279-0.134-0.067-0.089-0.1-0.201-0.067-0.313l0.625-2.5c0.033-0.156 0.179-0.268 0.346-0.268h3.65l0.904-3.661c0.045-0.156 0.19-0.268 0.357-0.268h2.5c0.1 0 0.212 0.056 0.279 0.134 0.067 0.089 0.089 0.201 0.067 0.313l-0.871 3.482h2.835l0.904-3.661c0.045-0.156 0.19-0.268 0.357-0.268h2.5c0.1 0 0.212 0.056 0.279 0.134 0.067 0.089 0.089 0.201 0.067 0.313l-0.871 3.482h3.471c0.112 0 0.212 0.056 0.279 0.134 0.067 0.089 0.089 0.201 0.067 0.313z"/></symbol>
		<symbol viewBox="0 0 20 20" fill="currentColor" id="icon-info"><path d="M8.75 5.938c0-0.516 0.422-0.938 0.938-0.938h0.625c0.516 0 0.938 0.422 0.938 0.938v0.625c0 0.516-0.422 0.938-0.938 0.938h-0.625c-0.516 0-0.938-0.422-0.938-0.938v-0.625z"/><path d="M12.5 15h-5v-1.25h1.25v-3.75h-1.25v-1.25h3.75v5h1.25z"/><path d="M10 0c-5.523 0-10 4.477-10 10s4.477 10 10 10 10-4.477 10-10-4.477-10-10-10zM10 18.125c-4.487 0-8.125-3.638-8.125-8.125s3.638-8.125 8.125-8.125 8.125 3.638 8.125 8.125-3.638 8.125-8.125 8.125z"/></symbol>
		<symbol viewBox="0 0 20 20" fill="currentColor" id="icon-instagram"><path d="M10 1.801c2.672 0 2.988 0.012 4.039 0.059 0.977 0.043 1.504 0.207 1.855 0.344 0.465 0.18 0.801 0.398 1.148 0.746 0.352 0.352 0.566 0.684 0.75 1.148 0.137 0.352 0.301 0.883 0.344 1.855 0.047 1.055 0.059 1.371 0.059 4.039s-0.012 2.988-0.059 4.039c-0.043 0.977-0.207 1.504-0.344 1.855-0.18 0.465-0.398 0.801-0.746 1.148-0.352 0.352-0.684 0.566-1.148 0.75-0.352 0.137-0.883 0.301-1.855 0.344-1.055 0.047-1.371 0.059-4.039 0.059s-2.988-0.012-4.039-0.059c-0.977-0.043-1.504-0.207-1.855-0.344-0.465-0.18-0.801-0.398-1.148-0.746-0.352-0.352-0.566-0.684-0.75-1.148-0.137-0.352-0.301-0.883-0.344-1.855-0.047-1.055-0.059-1.371-0.059-4.039s0.012-2.988 0.059-4.039c0.043-0.977 0.207-1.504 0.344-1.855 0.18-0.465 0.398-0.801 0.746-1.148 0.352-0.352 0.684-0.566 1.148-0.75 0.352-0.137 0.883-0.301 1.855-0.344 1.051-0.047 1.367-0.059 4.039-0.059zM10 0c-2.715 0-3.055 0.012-4.121 0.059-1.063 0.047-1.793 0.219-2.426 0.465-0.66 0.258-1.219 0.598-1.773 1.156-0.559 0.555-0.898 1.113-1.156 1.77-0.246 0.637-0.418 1.363-0.465 2.426-0.047 1.070-0.059 1.41-0.059 4.125s0.012 3.055 0.059 4.121c0.047 1.063 0.219 1.793 0.465 2.426 0.258 0.66 0.598 1.219 1.156 1.773 0.555 0.555 1.113 0.898 1.77 1.152 0.637 0.246 1.363 0.418 2.426 0.465 1.066 0.047 1.406 0.059 4.121 0.059s3.055-0.012 4.121-0.059c1.062-0.047 1.793-0.219 2.426-0.465 0.656-0.254 1.215-0.598 1.77-1.152s0.898-1.113 1.152-1.77c0.246-0.637 0.418-1.363 0.465-2.426 0.047-1.066 0.059-1.406 0.059-4.121s-0.012-3.055-0.059-4.121c-0.047-1.063-0.219-1.793-0.465-2.426-0.246-0.664-0.586-1.223-1.145-1.777-0.555-0.555-1.113-0.898-1.77-1.152-0.637-0.246-1.363-0.418-2.426-0.465-1.070-0.051-1.41-0.063-4.125-0.063v0z"/><path d="M10 4.863c-2.836 0-5.137 2.301-5.137 5.137s2.301 5.137 5.137 5.137 5.137-2.301 5.137-5.137c0-2.836-2.301-5.137-5.137-5.137zM10 13.332c-1.84 0-3.332-1.492-3.332-3.332s1.492-3.332 3.332-3.332c1.84 0 3.332 1.492 3.332 3.332s-1.492 3.332-3.332 3.332z"/><path d="M16.539 4.66c0 0.662-0.537 1.199-1.199 1.199s-1.199-0.537-1.199-1.199c0-0.662 0.537-1.199 1.199-1.199s1.199 0.537 1.199 1.199z"/></symbol>
		<symbol viewBox="0 0 20 20" fill="currentColor" id="icon-leaf"><path d="M19.752 2.627c-2.163-1.639-5.492-2.618-8.904-2.618-4.221 0-7.661 1.474-9.437 4.043-0.834 1.207-1.296 2.636-1.371 4.248-0.067 1.435 0.174 3.022 0.716 4.729 1.853-5.554 7.028-9.904 12.993-9.904 0 0-5.583 1.469-9.092 6.019-0.002 0.003-0.049 0.060-0.129 0.17-0.705 0.943-1.319 2.015-1.779 3.229-0.779 1.852-1.5 4.394-1.5 7.457h2.5c0 0-0.379-2.387 0.28-5.133 1.092 0.148 2.068 0.221 2.946 0.221 2.298 0 3.933-0.497 5.144-1.565 1.085-0.957 1.684-2.242 2.317-3.603 0.967-2.078 2.064-4.434 5.247-6.253 0.182-0.104 0.3-0.293 0.314-0.502s-0.079-0.412-0.246-0.539z"/></symbol>
		<symbol viewBox="0 0 20 20" fill="currentColor" id="icon-lightbulb"><path d="M7 13.33c-2.384-1.15-4-3.549-4-6.325 0-3.866 3.134-7 7-7s7 3.134 7 7c0 2.776-1.616 5.174-3.958 6.306l-0.042 0.018v2.67h-6v-2.67zM7 17h6v1.5c0 0.83-0.67 1.5-1.5 1.5h-3c-0.828 0-1.5-0.672-1.5-1.5v0-1.5zM9 11.9v2.1h2v-2.1c2.299-0.481 4-2.492 4-4.899 0-2.761-2.239-5-5-5s-5 2.239-5 5c0 2.407 1.701 4.417 3.967 4.893l0.033 0.006z"/></symbol>
		<symbol viewBox="0 0 20 20" fill="currentColor" id="icon-link"><path d="M8.598 12.417c-0.26 0-0.52-0.099-0.718-0.297-1.858-1.858-1.858-4.882 0-6.74l3.75-3.75c0.9-0.9 2.097-1.396 3.37-1.396s2.47 0.496 3.37 1.396c1.858 1.858 1.858 4.882 0 6.74l-1.714 1.714c-0.397 0.397-1.040 0.397-1.436 0s-0.397-1.040 0-1.436l1.714-1.714c1.066-1.066 1.066-2.801 0-3.867-0.516-0.516-1.203-0.801-1.934-0.801s-1.417 0.284-1.934 0.801l-3.75 3.75c-1.066 1.066-1.066 2.801 0 3.867 0.397 0.397 0.397 1.040 0 1.436-0.198 0.198-0.458 0.297-0.718 0.297z"/><path d="M5 19.766c-1.273 0-2.47-0.496-3.37-1.396-1.858-1.858-1.858-4.882 0-6.74l1.714-1.714c0.397-0.397 1.040-0.397 1.436 0s0.397 1.040 0 1.436l-1.714 1.714c-1.066 1.066-1.066 2.801 0 3.867 0.516 0.516 1.203 0.801 1.933 0.801s1.417-0.284 1.934-0.801l3.75-3.75c1.066-1.066 1.066-2.801 0-3.867-0.397-0.397-0.397-1.040 0-1.436s1.040-0.397 1.436 0c1.858 1.858 1.858 4.881 0 6.74l-3.75 3.75c-0.9 0.9-2.097 1.396-3.37 1.396z"/></symbol>
		<symbol viewBox="0 0 20 20" fill="currentColor" id="icon-location"><path d="M10 0c-3.452 0-6.25 2.798-6.25 6.25 0 6.25 6.25 13.75 6.25 13.75s6.25-7.5 6.25-13.75c0-3.452-2.798-6.25-6.25-6.25zM10 10c-2.071 0-3.75-1.679-3.75-3.75s1.679-3.75 3.75-3.75 3.75 1.679 3.75 3.75-1.679 3.75-3.75 3.75z"/></symbol>
		<symbol viewBox="0 0 20 20" fill="currentColor" id="icon-map"><path d="M0 3.75l6.25-2.5v15l-6.25 2.5z"/><path d="M7.5 0.625l6.25 3.75v14.375l-6.25-3.125z"/><path d="M15 4.375l5-3.75v15l-5 3.75z"/></symbol>
		<symbol viewBox="0 0 20 20" fill="currentColor" id="icon-minus"><path d="M0 8.125v3.75c0 0.345 0.28 0.625 0.625 0.625h18.75c0.345 0 0.625-0.28 0.625-0.625v-3.75c0-0.345-0.28-0.625-0.625-0.625h-18.75c-0.345 0-0.625 0.28-0.625 0.625z"/></symbol>
		<symbol viewBox="0 0 20 20" fill="currentColor" id="icon-moon-fill"><path d="M15.396 13.865c-5.117 0-9.262-4.148-9.262-9.262 0-1.684 0.483-3.243 1.269-4.602-4.265 1.23-7.402 5.117-7.402 9.777 0 5.644 4.575 10.222 10.22 10.222 4.661 0 8.55-3.139 9.78-7.402-1.363 0.784-2.92 1.267-4.604 1.267z"/></symbol>
		<symbol viewBox="0 0 20 20" fill="currentColor" id="icon-moon-stroke"><path d="M3.684 5.717c0.53 5.599 5 10.068 10.598 10.596-1.194 0.757-2.595 1.186-4.063 1.186-4.258 0.001-7.72-3.461-7.72-7.721 0-1.467 0.43-2.867 1.184-4.061zM7.402 0c-4.265 1.231-7.402 5.118-7.402 9.779 0 5.646 4.575 10.221 10.22 10.221 4.661 0 8.55-3.139 9.78-7.402-1.363 0.786-2.92 1.269-4.604 1.269-5.117 0-9.262-4.149-9.262-9.264-0.001-1.684 0.483-3.242 1.269-4.603v0z"/></symbol>
		<symbol viewBox="0 0 20 20" fill="currentColor" id="icon-mug"><path d="M18.75 6.25h-3.75v-1.875c0-1.726-3.358-3.125-7.5-3.125s-7.5 1.399-7.5 3.125v12.5c0 1.726 3.358 3.125 7.5 3.125s7.5-1.399 7.5-3.125v-1.875h3.75c0.69 0 1.25-0.56 1.25-1.25v-6.25c0-0.69-0.56-1.25-1.25-1.25zM3.439 5.047c-0.723-0.238-1.16-0.493-1.395-0.672 0.234-0.179 0.672-0.434 1.395-0.672 1.132-0.373 2.574-0.578 4.061-0.578s2.93 0.205 4.061 0.578c0.723 0.238 1.16 0.493 1.395 0.672-0.234 0.179-0.672 0.434-1.395 0.672-1.132 0.373-2.574 0.578-4.061 0.578s-2.93-0.205-4.061-0.578zM17.5 12.5h-2.5v-3.75h2.5v3.75z"/></symbol>
		<symbol viewBox="0 0 20 20" fill="currentColor" id="icon-newtab"><path d="M0 3.75v16.25h16.25v-10.313l-2.5 2.5v5.313h-11.25v-11.25h5.313l2.5-2.5z"/><path d="M8.125 0v2.5h7.608l-10.054 10.054 1.768 1.767 10.054-10.054v7.608h2.499v-11.875h-11.875z"/></symbol>
		<symbol viewBox="0 0 20 20" fill="currentColor" id="icon-notification"><path d="M10 1.875c-2.17 0-4.211 0.845-5.745 2.38s-2.38 3.575-2.38 5.745c0 2.17 0.845 4.211 2.38 5.745s3.575 2.38 5.745 2.38c2.17 0 4.211-0.845 5.745-2.38s2.38-3.575 2.38-5.745c0-2.17-0.845-4.211-2.38-5.745s-3.575-2.38-5.745-2.38zM10 0v0c5.523 0 10 4.477 10 10s-4.477 10-10 10c-5.523 0-10-4.477-10-10s4.477-10 10-10zM8.75 13.75h2.5v2.5h-2.5zM8.75 3.75h2.5v7.5h-2.5z"/></symbol>
		<symbol viewBox="0 0 20 20" fill="currentColor" id="icon-phone"><path d="M13.75 12.5c-1.25 1.25-1.25 2.5-2.5 2.5s-2.5-1.25-3.75-2.5-2.5-2.5-2.5-3.75 1.25-1.25 2.5-2.5-2.5-5-3.75-5-3.75 3.75-3.75 3.75c0 2.5 2.568 7.568 5 10s7.5 5 10 5c0 0 3.75-2.5 3.75-3.75s-3.75-5-5-3.75z"/></symbol>
		<symbol viewBox="0 0 20 20" fill="currentColor" id="icon-plus"><path d="M19.375 7.5h-6.875v-6.875c0-0.345-0.28-0.625-0.625-0.625h-3.75c-0.345 0-0.625 0.28-0.625 0.625v6.875h-6.875c-0.345 0-0.625 0.28-0.625 0.625v3.75c0 0.345 0.28 0.625 0.625 0.625h6.875v6.875c0 0.345 0.28 0.625 0.625 0.625h3.75c0.345 0 0.625-0.28 0.625-0.625v-6.875h6.875c0.345 0 0.625-0.28 0.625-0.625v-3.75c0-0.345-0.28-0.625-0.625-0.625z"/></symbol>
		<symbol viewBox="0 0 20 20" fill="currentColor" id="icon-power"><path d="M7.5 0l-7.5 10h7.5l-5 10 17.5-12.5h-10l7.5-7.5z"/></symbol>
		<symbol viewBox="0 0 20 20" fill="currentColor" id="icon-quotes-left"><path d="M4.395 8.75c2.416 0 4.375 1.959 4.375 4.375s-1.959 4.375-4.375 4.375-4.375-1.959-4.375-4.375l-0.020-0.625c0-4.832 3.917-8.75 8.75-8.75v2.5c-1.669 0-3.239 0.65-4.419 1.831-0.227 0.227-0.435 0.469-0.622 0.723 0.223-0.035 0.452-0.054 0.686-0.054zM15.645 8.75c2.416 0 4.375 1.959 4.375 4.375s-1.959 4.375-4.375 4.375-4.375-1.959-4.375-4.375l-0.020-0.625c0-4.832 3.918-8.75 8.75-8.75v2.5c-1.669 0-3.239 0.65-4.419 1.831-0.227 0.227-0.435 0.469-0.622 0.723 0.223-0.035 0.452-0.054 0.686-0.054z"/></symbol>
		<symbol viewBox="0 0 20 20" fill="currentColor" id="icon-quotes-right"><path d="M15.625 12.5c-2.416 0-4.375-1.959-4.375-4.375s1.959-4.375 4.375-4.375 4.375 1.959 4.375 4.375l0.020 0.625c0 4.832-3.918 8.75-8.75 8.75v-2.5c1.669 0 3.239-0.65 4.419-1.831 0.227-0.227 0.435-0.469 0.622-0.723-0.223 0.035-0.452 0.054-0.686 0.054zM4.375 12.5c-2.416 0-4.375-1.959-4.375-4.375s1.959-4.375 4.375-4.375 4.375 1.959 4.375 4.375l0.020 0.625c0 4.832-3.917 8.75-8.75 8.75v-2.5c1.669 0 3.239-0.65 4.419-1.831 0.227-0.227 0.435-0.469 0.622-0.723-0.223 0.035-0.452 0.054-0.686 0.054z"/></symbol>
		<symbol viewBox="0 0 20 20" fill="currentColor" id="icon-reddit"><path d="M5 12.5c0-0.69 0.56-1.25 1.25-1.25s1.25 0.56 1.25 1.25c0 0.69-0.56 1.25-1.25 1.25s-1.25-0.56-1.25-1.25zM12.5 12.5c0-0.69 0.56-1.25 1.25-1.25s1.25 0.56 1.25 1.25c0 0.69-0.56 1.25-1.25 1.25s-1.25-0.56-1.25-1.25zM12.561 15.171c0.322-0.254 0.789-0.198 1.042 0.124s0.198 0.789-0.124 1.042c-0.896 0.706-2.262 1.163-3.479 1.163s-2.583-0.456-3.479-1.163c-0.322-0.254-0.377-0.72-0.124-1.042s0.72-0.377 1.042-0.124c0.516 0.407 1.538 0.844 2.561 0.844s2.045-0.438 2.561-0.844zM20 10c0-1.381-1.119-2.5-2.5-2.5-0.94 0-1.758 0.519-2.185 1.286-1.285-0.703-2.851-1.157-4.556-1.262l1.492-3.35 2.855 0.824c0.257 0.729 0.952 1.252 1.769 1.252 1.036 0 1.875-0.839 1.875-1.875s-0.839-1.875-1.875-1.875c-0.714 0-1.335 0.399-1.651 0.987l-3.182-0.918c-0.356-0.103-0.733 0.073-0.884 0.411l-2.027 4.551c-1.663 0.117-3.189 0.567-4.446 1.255-0.427-0.767-1.245-1.285-2.185-1.285-1.381 0-2.5 1.119-2.5 2.5 0 1.022 0.613 1.899 1.492 2.287-0.158 0.469-0.242 0.959-0.242 1.463 0 3.452 3.917 6.25 8.75 6.25s8.75-2.798 8.75-6.25c0-0.504-0.084-0.993-0.242-1.463 0.878-0.388 1.492-1.266 1.492-2.287zM16.875 3.672c0.388 0 0.703 0.315 0.703 0.703s-0.315 0.703-0.703 0.703-0.703-0.315-0.703-0.703 0.315-0.703 0.703-0.703zM1.25 10c0-0.689 0.561-1.25 1.25-1.25 0.498 0 0.929 0.293 1.13 0.716-0.653 0.495-1.195 1.067-1.595 1.694-0.459-0.185-0.785-0.635-0.785-1.16zM10 18.516c-4.013 0-7.266-2.134-7.266-4.766s3.253-4.766 7.266-4.766c4.013 0 7.266 2.134 7.266 4.766s-3.253 4.766-7.266 4.766zM17.965 11.16c-0.4-0.627-0.942-1.199-1.595-1.694 0.201-0.423 0.632-0.716 1.13-0.716 0.689 0 1.25 0.561 1.25 1.25 0 0.525-0.325 0.975-0.785 1.16z"/></symbol>
		<symbol viewBox="0 0 20 20" fill="currentColor" id="icon-rss"><path d="M2.662 14.667c-1.469 0-2.662 1.198-2.662 2.658 0 1.468 1.193 2.652 2.662 2.652 1.474 0 2.666-1.185 2.666-2.652-0-1.46-1.192-2.658-2.666-2.658zM0.003 6.796v3.833c2.496 0 4.843 0.976 6.611 2.744 1.765 1.764 2.74 4.122 2.74 6.627h3.85c-0-7.282-5.923-13.204-13.2-13.204zM0.008 0v3.835c8.902 0 16.148 7.253 16.148 16.165h3.845c0-11.025-8.97-20-19.992-20z"/></symbol>
		<symbol viewBox="0 0 20 20" fill="currentColor" id="icon-shrink"><path d="M11.25 8.75h8.125l-3.125-3.125 3.75-3.75-1.875-1.875-3.75 3.75-3.125-3.125z"/><path d="M11.25 11.25v8.125l3.125-3.125 3.75 3.75 1.875-1.875-3.75-3.75 3.125-3.125z"/><path d="M8.75 11.25h-8.125l3.125 3.125-3.75 3.75 1.875 1.875 3.75-3.75 3.125 3.125z"/><path d="M8.75 8.75v-8.125l-3.125 3.125-3.75-3.75-1.875 1.875 3.75 3.75-3.125 3.125z"/></symbol>
		<symbol viewBox="0 0 20 20" fill="currentColor" id="icon-spoon-knife"><path d="M4.375 0c-2.071 0-3.75 1.959-3.75 4.375 0 2.069 1.231 3.802 2.885 4.258l-0.621 10.12c-0.042 0.686 0.486 1.248 1.173 1.248h0.625c0.688 0 1.216-0.561 1.173-1.248l-0.621-10.12c1.654-0.456 2.885-2.189 2.885-4.258 0-2.416-1.679-4.375-3.75-4.375zM16.979 0l-1.042 6.25h-0.781l-0.521-6.25h-0.521l-0.521 6.25h-0.781l-1.042-6.25h-0.521v8.125c0 0.345 0.28 0.625 0.625 0.625h1.628l-0.614 10.002c-0.042 0.686 0.486 1.248 1.173 1.248h0.625c0.688 0 1.216-0.561 1.173-1.248l-0.614-10.002h1.628c0.345 0 0.625-0.28 0.625-0.625v-8.125h-0.521z"/></symbol>
		<symbol viewBox="0 0 20 20" fill="currentColor" id="icon-star-empty"><path d="M20 7.755l-6.91-1.004-3.090-6.261-3.090 6.261-6.91 1.004 5 4.874-1.18 6.882 6.18-3.249 6.18 3.249-1.18-6.882 5-4.874zM10 14.717l-4.364 2.295 0.834-4.86-3.531-3.442 4.88-0.709 2.182-4.422 2.182 4.422 4.88 0.709-3.531 3.442 0.834 4.86-4.364-2.295z"/></symbol>
		<symbol viewBox="0 0 20 20" fill="currentColor" id="icon-sun"><path d="M10 16.25c0.69 0 1.25 0.56 1.25 1.25v1.25c0 0.69-0.56 1.25-1.25 1.25s-1.25-0.56-1.25-1.25v-1.25c0-0.69 0.56-1.25 1.25-1.25zM10 3.75c-0.69 0-1.25-0.56-1.25-1.25v-1.25c0-0.69 0.56-1.25 1.25-1.25s1.25 0.56 1.25 1.25v1.25c0 0.69-0.56 1.25-1.25 1.25zM18.75 8.75c0.69 0 1.25 0.56 1.25 1.25s-0.56 1.25-1.25 1.25h-1.25c-0.69 0-1.25-0.56-1.25-1.25s0.56-1.25 1.25-1.25h1.25zM3.75 10c0 0.69-0.56 1.25-1.25 1.25h-1.25c-0.69 0-1.25-0.56-1.25-1.25s0.56-1.25 1.25-1.25h1.25c0.69 0 1.25 0.56 1.25 1.25zM16.187 14.419l0.884 0.884c0.488 0.488 0.488 1.28 0 1.768s-1.28 0.488-1.768 0l-0.884-0.884c-0.488-0.488-0.488-1.28 0-1.768s1.28-0.488 1.768 0zM3.813 5.581l-0.884-0.884c-0.488-0.488-0.488-1.28 0-1.768s1.28-0.488 1.768 0l0.884 0.884c0.488 0.488 0.488 1.28 0 1.768s-1.28 0.488-1.768 0zM16.187 5.581c-0.488 0.488-1.28 0.488-1.768 0s-0.488-1.28 0-1.768l0.884-0.884c0.488-0.488 1.28-0.488 1.768 0s0.488 1.28 0 1.768l-0.884 0.884zM3.813 14.419c0.488-0.488 1.28-0.488 1.768 0s0.488 1.28 0 1.768l-0.884 0.884c-0.488 0.488-1.28 0.488-1.768 0s-0.488-1.28 0-1.768l0.884-0.884z"/><path d="M10 5c-2.761 0-5 2.239-5 5s2.239 5 5 5c2.761 0 5-2.239 5-5s-2.239-5-5-5zM10 13.125c-1.726 0-3.125-1.399-3.125-3.125s1.399-3.125 3.125-3.125 3.125 1.399 3.125 3.125-1.399 3.125-3.125 3.125z"/></symbol>
		<symbol viewBox="0 0 20 20" fill="currentColor" id="icon-twitter"><path d="M20 4.422c-0.734 0.328-1.527 0.547-2.355 0.645 0.848-0.508 1.496-1.313 1.805-2.27-0.793 0.469-1.672 0.812-2.605 0.996-0.75-0.797-1.816-1.293-2.996-1.293-2.266 0-4.102 1.836-4.102 4.102 0 0.32 0.035 0.633 0.105 0.934-3.41-0.172-6.434-1.805-8.457-4.289-0.352 0.605-0.555 1.313-0.555 2.062 0 1.422 0.723 2.68 1.824 3.414-0.672-0.020-1.305-0.207-1.859-0.512 0 0.016 0 0.035 0 0.051 0 1.988 1.414 3.648 3.293 4.023-0.344 0.094-0.707 0.145-1.082 0.145-0.266 0-0.52-0.027-0.773-0.074 0.523 1.629 2.039 2.816 3.832 2.852-1.406 1.102-3.172 1.758-5.098 1.758-0.332 0-0.656-0.020-0.98-0.059 1.82 1.168 3.977 1.844 6.293 1.844 7.547 0 11.676-6.254 11.676-11.676 0-0.18-0.004-0.355-0.012-0.531 0.801-0.574 1.496-1.297 2.047-2.121z"/></symbol>
		<symbol viewBox="0 0 20 20" fill="currentColor" id="icon-upload"><path d="M0 17.5h20v1.25h-20zM20 15v1.25h-20v-1.25l2.5-5h5v2.5h5v-2.5h5zM4.375 6.25l5.625-5.625 5.625 5.625h-4.375v5h-2.5v-5z"/></symbol>
		<symbol viewBox="0 0 20 20" fill="currentColor" id="icon-warning"><path d="M10 1.812l8.381 16.704h-16.762l8.381-16.704zM10 0c-0.431 0-0.862 0.291-1.189 0.872l-8.537 17.014c-0.654 1.163-0.098 2.114 1.236 2.114h16.979c1.334 0 1.89-0.951 1.236-2.114h0l-8.537-17.014c-0.327-0.581-0.758-0.872-1.189-0.872v0z"/><path d="M11.25 16.25c0 0.69-0.56 1.25-1.25 1.25s-1.25-0.56-1.25-1.25c0-0.69 0.56-1.25 1.25-1.25s1.25 0.56 1.25 1.25z"/><path d="M10 13.75c-0.69 0-1.25-0.56-1.25-1.25v-3.75c0-0.69 0.56-1.25 1.25-1.25s1.25 0.56 1.25 1.25v3.75c0 0.69-0.56 1.25-1.25 1.25z"/></symbol>
		<symbol viewBox="0 0 20 20" fill="currentColor" id="icon-wine-glass"><path d="M15.191 0.329c-0.109-0.203-0.32-0.329-0.551-0.329h-9.281c-0.23 0-0.442 0.126-0.551 0.329-0.693 1.289-1.059 2.797-1.059 4.358 0 2.059 0.632 4.001 1.78 5.468 0.887 1.134 2.002 1.886 3.22 2.191v6.404h-1.875c-0.345 0-0.625 0.28-0.625 0.625s0.28 0.625 0.625 0.625h6.25c0.345 0 0.625-0.28 0.625-0.625s-0.28-0.625-0.625-0.625h-1.875v-6.404c1.218-0.305 2.332-1.057 3.22-2.191 1.148-1.467 1.78-3.409 1.78-5.468 0-1.562-0.366-3.069-1.059-4.358zM5.744 1.25h8.512c0.488 1.033 0.744 2.214 0.744 3.438 0 0.105-0.002 0.209-0.006 0.313h-9.988c-0.004-0.104-0.006-0.208-0.006-0.313-0-1.224 0.256-2.404 0.744-3.438z"/></symbol>
		<symbol viewBox="0 0 20 20" fill="currentColor" id="icon-x"><path d="M18.75 15.249l-5.254-5.249 5.254-5.249-3.501-3.501-5.249 5.251-5.251-5.251-3.499 3.501 5.249 5.249-5.249 5.249 3.499 3.501 5.251-5.251 5.249 5.251z"/></symbol>
		<symbol viewBox="0 0 20 20" fill="currentColor" id="icon-youtube"><path d="M19.801 6c0 0-0.195-1.379-0.797-1.984-0.762-0.797-1.613-0.801-2.004-0.848-2.797-0.203-6.996-0.203-6.996-0.203h-0.008c0 0-4.199 0-6.996 0.203-0.391 0.047-1.242 0.051-2.004 0.848-0.602 0.605-0.793 1.984-0.793 1.984s-0.199 1.617-0.199 3.238v1.516c0 1.617 0.199 3.238 0.199 3.238s0.195 1.379 0.793 1.984c0.762 0.797 1.762 0.77 2.207 0.855 1.602 0.152 6.801 0.199 6.801 0.199s4.203-0.008 7-0.207c0.391-0.047 1.242-0.051 2.004-0.848 0.602-0.605 0.797-1.984 0.797-1.984s0.199-1.617 0.199-3.238v-1.516c-0.004-1.617-0.203-3.238-0.203-3.238zM7.934 12.594v-5.621l5.402 2.82-5.402 2.801z"/></symbol>
		<symbol viewBox="0 0 23 20" fill="currentColor" id="icon-bubbles"><path d="M9.375 0v0c5.178 0 9.375 3.397 9.375 7.587s-4.197 7.587-9.375 7.587c-0.497 0-0.985-0.032-1.462-0.092-2.014 2.006-4.339 2.365-6.663 2.418v-0.491c1.255-0.612 2.266-1.728 2.266-3.003 0-0.178-0.014-0.352-0.040-0.523-2.12-1.391-3.476-3.515-3.476-5.896 0-4.19 4.197-7.587 9.375-7.587zM19.453 17.006c0 1.093 0.709 2.049 1.797 2.574v0.421c-2.014-0.045-3.863-0.354-5.608-2.073-0.413 0.052-0.836 0.079-1.267 0.079-1.865 0-3.582-0.503-4.953-1.348 2.826-0.010 5.493-0.915 7.516-2.552 1.020-0.825 1.824-1.793 2.391-2.878 0.601-1.15 0.906-2.375 0.906-3.641 0-0.204-0.009-0.407-0.025-0.609 1.417 1.171 2.29 2.766 2.29 4.525 0 2.041-1.175 3.862-3.012 5.054-0.022 0.146-0.034 0.296-0.034 0.449z"/></symbol>
	</defs>
</svg>
